<svg id="Capa_1" enable-background="new 0 0 512 512" height="512" viewBox="0 0 512 512" width="512" xmlns="http://www.w3.org/2000/svg"><g><g><path d="m444.346 340.02s11.124-12.046 7.582-27.022-63.937-89.722-195.928-89.722-192.386 74.746-195.928 89.722 7.582 27.022 7.582 27.022z" fill="#e09d7f"/><path d="m252.78 308.469c95.468 0 165.551-3.055 178.048-23.557-28.088-26.863-84.798-61.636-174.828-61.636-94.592 0-152.407 38.387-178.883 65.654 18.922 16.892 85.777 19.539 174.623 19.539z" fill="#d88f72"/><path d="m67.654 340.02h376.692l-33.324 143.52c-2.782 11.98-13.457 20.46-25.756 20.46h-258.533c-12.299 0-22.974-8.48-25.756-20.46z" fill="#b9e3ae"/><path d="m394.267 486h-276.534c-6.773 0-13.044-2.582-17.785-6.894l1.029 4.433c2.782 11.98 13.456 20.46 25.756 20.46h258.533c12.299 0 22.974-8.48 25.756-20.46l1.029-4.433c-4.74 4.312-11.012 6.894-17.784 6.894z" fill="#b1d3a5"/><path d="m251.767 290.469c-96.683 0-165.892-3.488-170.357-28.046s32.076-63.698 52.875-62.581c0 0-.624-54.628 68.134-74.721 0 0 27.575-49.841 49.841-49.841s49.841 49.841 49.841 49.841c68.758 20.093 68.134 74.721 68.134 74.721 20.799-1.116 57.34 38.023 52.875 62.581s-73.674 28.046-170.357 28.046z" fill="#edf3f7"/><path d="m252.752 272.469h-.985c-91.626 0-158.566-3.136-169.12-24.366-1.513 5.031-2.039 9.911-1.237 14.32 4.465 24.558 73.674 28.046 170.357 28.046h.985c96.683 0 165.892-3.488 170.357-28.046.802-4.409.276-9.288-1.237-14.32-10.554 21.23-77.494 24.366-169.12 24.366z" fill="#dce8ef"/><g><path d="m293.034 45.398c-1.001-35.453-64.253-59.035-86.679-7.638-18.251 41.827 16.554 89.375 37.837 113.048 13.667-1.265 30.613-.564 46.657 6.31 31.06-10.805 74.42-32.861 80.036-72.853 7.798-55.531-58.44-68.55-77.851-38.867z" fill="#f3746b"/></g><path d="m231.181 135.099c4.52 5.95 9.006 11.253 13.012 15.709 13.667-1.265 30.613-.564 46.657 6.31 6.338-2.205 13.19-4.887 20.128-8.086-27.597-19.087-60.982-17.191-79.797-13.933z" fill="#e7635f"/></g><g><path d="m147.822 230.758-12.756 12.756c-2.935 2.936-2.935 7.693 0 10.629 1.468 1.467 3.392 2.201 5.314 2.201 1.923 0 3.846-.734 5.314-2.201l12.756-12.756c2.935-2.936 2.935-7.693 0-10.629-2.935-2.933-7.692-2.933-10.628 0z"/><path d="m245.874 213.112c1.923 0 3.847-.734 5.314-2.201l12.756-12.756c2.935-2.936 2.935-7.693 0-10.628-2.936-2.934-7.693-2.934-10.629 0l-12.756 12.756c-2.934 2.936-2.934 7.693 0 10.629 1.469 1.466 3.393 2.2 5.315 2.2z"/><path d="m206.249 210.911c2.935-2.936 2.935-7.693 0-10.629l-12.756-12.756c-2.935-2.934-7.693-2.934-10.629 0-2.935 2.936-2.935 7.693 0 10.628l12.756 12.756c1.468 1.467 3.392 2.201 5.314 2.201 1.923.001 3.847-.733 5.315-2.2z"/><path d="m347.438 256.343c1.923 0 3.846-.734 5.314-2.201l12.756-12.756c2.935-2.936 2.935-7.693 0-10.629-2.935-2.934-7.693-2.934-10.629 0l-12.756 12.756c-2.935 2.936-2.935 7.693 0 10.629 1.468 1.467 3.392 2.201 5.315 2.201z"/><path d="m195.81 252.667c0 4.151 3.364 7.515 7.515 7.515h18.04c4.151 0 7.515-3.364 7.515-7.515s-3.364-7.515-7.515-7.515h-18.04c-4.151 0-7.515 3.364-7.515 7.515z"/><path d="m310.382 208.889h18.04c4.151 0 7.515-3.364 7.515-7.515s-3.364-7.515-7.515-7.515h-18.04c-4.151 0-7.515 3.364-7.515 7.515 0 4.15 3.364 7.515 7.515 7.515z"/><path d="m268.082 247.765 12.756 12.756c1.468 1.467 3.391 2.201 5.314 2.201s3.846-.734 5.314-2.201c2.935-2.936 2.935-7.693 0-10.629l-12.756-12.756c-2.935-2.934-7.693-2.934-10.629 0-2.934 2.936-2.934 7.693.001 10.629z"/><path d="m459.632 311.373c-1.973-8.339-13.433-24.056-31.978-39.638 1.591-2.433 2.658-5.079 3.182-7.964 2.456-13.511-4.581-31.229-18.826-47.396-8.96-10.17-22.038-20.727-34.574-23.495-1.6-11.679-7.918-35.8-32.633-55.158 23.364-17.853 31.578-37.281 33.752-52.763 4.619-32.892-13.991-52.219-32.947-59.34-17.178-6.454-35.51-4.36-48.335 4.557-4.427-10.044-13.005-18.785-24.407-24.36-18.276-8.935-39.15-7.494-54.479 3.756-3.346 2.455-4.068 7.159-1.612 10.504 2.455 3.347 7.159 4.069 10.504 1.612 12.921-9.482 28.611-7.44 38.985-2.369 11.634 5.688 19.043 15.597 19.332 25.862.093 3.283 2.307 6.126 5.468 7.019 3.16.895 6.535-.37 8.334-3.118 7.412-11.334 25.006-15.373 40.925-9.392 17.494 6.571 26.223 22.713 23.349 43.18-2.703 19.248-17.545 46.177-72.53 65.991-15.14-5.891-30.699-6.943-43.867-6.104-9.431-10.813-21.407-26.437-29.503-43.841-9.844-21.161-11.731-40.065-5.61-56.186 1.474-3.88-.477-8.219-4.358-9.693-3.875-1.473-8.219.477-9.693 4.358-8.866 23.349-3.576 47.709 6.693 69.213-3.375 5.012-5.985 9.305-7.522 11.916-36.134 11.366-53.43 32.175-61.603 47.835-5.543 10.62-7.731 20.325-8.594 26.518-12.542 2.763-25.629 13.326-34.593 23.501-14.243 16.167-21.281 33.884-18.824 47.394.818 4.497 2.953 8.39 6.28 11.767-16.583 14.809-25.861 28.566-27.58 35.834-3.609 15.261 4.563 27.8 7.987 32.216l32.993 142.095c3.599 15.494 17.221 26.316 33.128 26.316h259.048c15.907 0 29.528-10.822 33.127-26.317l32.992-142.093c3.423-4.414 11.598-16.954 7.989-32.217zm-392.637 3.459c.721-3.05 8.225-15.613 26.062-30.784 19.689 8.636 52.987 11.798 94.876 13.161.083.003.166.004.25.004 4.036 0 7.374-3.206 7.506-7.27.135-4.149-3.118-7.621-7.266-7.756-33.496-1.09-57.781-3.439-74.239-7.181-15.604-3.548-24.741-8.492-25.728-13.922-1.592-8.756 4.419-22.404 15.314-34.769 8.65-9.817 21.655-19.546 29.871-19.089 2.067.114 4.079-.651 5.576-2.073 1.498-1.422 2.344-3.416 2.341-5.482-.004-2.009.624-49.418 62.862-67.605 1.9-.556 3.506-1.841 4.466-3.573.025-.045 1.544-2.771 4.096-6.865 5.268 8.635 11.055 16.558 16.616 23.449-9.137 1.811-15.132 3.958-15.858 4.225-3.892 1.43-5.886 5.739-4.461 9.633 1.424 3.893 5.735 5.899 9.633 4.479.482-.175 48.718-17.293 82.657 8.267 3.285 2.481 8.014 1.852 10.524-1.482 2.497-3.315 1.833-8.027-1.483-10.524-.679-.512-1.363-1.007-2.05-1.491 8.658-3.664 16.292-7.535 23.011-11.543 31.04 21.566 31.379 51.708 31.377 52.996-.023 2.077.814 4.073 2.313 5.51 1.5 1.438 3.519 2.187 5.603 2.079 8.201-.461 21.219 9.27 29.868 19.087 10.896 12.366 16.908 26.015 15.316 34.771-1.905 10.48-31.774 15.5-44.527 17.172-31.994 4.194-78.245 4.759-119.269 4.759-13.092 0-24.505-.065-34.891-.197-4.163-.097-7.558 3.268-7.61 7.418-.053 4.15 3.268 7.557 7.418 7.61 10.45.134 21.925.199 35.082.199 84.981 0 139.387-2.933 163.88-16.34 19.545 15.953 28.108 29.898 28.872 33.129 1.779 7.519-1.705 14.352-4.005 17.83h-369.995c-2.31-3.494-5.785-10.32-4.008-17.832zm165.677 182.138-14.579-149.277h75.815l-14.58 149.277zm-62.05 0-25.038-149.277h57.406l14.58 149.277zm-62.633-14.686-31.251-134.591h53.607l25.038 149.277h-28.907c-8.877 0-16.479-6.039-18.487-14.686zm296.022 0c-2.008 8.647-9.61 14.686-18.487 14.686h-28.907l6.814-40.628c.687-4.093-2.075-7.968-6.168-8.654-4.095-.683-7.968 2.075-8.654 6.169l-7.231 43.113h-46.948l14.58-149.277h57.406l-12.832 76.505c-.687 4.093 2.074 7.968 6.168 8.654.421.07.839.105 1.252.105 3.604 0 6.787-2.601 7.402-6.273l13.249-78.99h53.607z"/></g></g></svg>