<svg id="Cupcake" enable-background="new 0 0 64 64" height="512" viewBox="0 0 64 64" width="512" xmlns="http://www.w3.org/2000/svg"><path d="m34.0215 7.07208c-.14632 1.46283-.47545 2.77946-.93259 3.96796-.56685.34743-1.22522.71317-1.97488 1.0789-2.35881 1.15201-4.73604 1.82857-9.47197 2.66964-1.15201.20123-2.1943.45714-3.1452.74978-1.1702-.84118-2.32221-1.93828-3.3462-3.34631-1.0789-1.48114-1.77377-3.25479-1.44464-5.06517.0183-.0365.0183-.0731.0183-.10971.62176-3.3279 3.84006-5.08336 6.67432-3.98627 1.33482.53036 2.2491 1.17031 2.83426 1.64576.27433-.71317.71317-1.71886 1.60915-2.85256 1.88337-2.37712 5.5405-2.50513 7.77142.0548.0183.0183.03661.05491.0548.09152 1.20691 1.38961 1.51773 3.27309 1.35323 5.10166zm15.12218 6.39999c-1.44453-3.01718-3.93135-6.41829-6.74742-6.41829-3.76685 0-3.18169 3.1452-10.47766 6.71081-2.59654 1.26172-5.21138 1.97489-9.96572 2.81607-1.60915.29252-5.01026.98739-7.22287 2.92566-2.74285 2.39542-3.63883 5.66863-3.3462 8.72231 1.38962-.73147 2.81596-1.22511 4.09598-1.49944 2.1943-.45714 4.44341-.78627 6.82053-1.1154 2.1029-.29263 4.2606-.60346 6.4914-1.02399 3.94977-.74977 6.36349-1.37143 8.13715-1.81026 2.72455-.67667 4.22399-1.0606 7.46059-1.0606h.65826c2.52343.0365 4.49832.47544 6.07086 1.17031.09139-4.11429-1.20693-7.82634-1.9749-9.41718zm-30.3177 32.76791c-1.49933.9875-3.3645 2.176-6.19876 2.19431-.09141 0-.18292 0-.27433-.0183l2.81596 10.53257c.58516 2.2126 3.1452 3.93147 6.39999 4.3703zm8.04575.71317c-.38404-.20111-.73147-.42054-1.07879-.62176-1.33493-.78627-2.48694-1.46283-3.85836-1.46283-.51194 0-.95078.10971-1.40792.32913l2.94397 18.3589c1.42623.16451 2.87086.27422 4.31539.32913zm5.11997 1.48114h-.0548c-1.20692 0-2.24921-.25603-3.2-.62176l.85938 16.14629c1.42634.05491 2.83426.05491 4.2606 0l.85937-15.94506c-.78627.25591-1.68225.42053-2.72455.42053zm9.43547-3.71194s0 0-.0183 0c-1.24341 0-1.99319.51194-3.2366 1.38962-.47544.32913-1.00569.71317-1.59084 1.0423l-.87768 16.73145c1.42622-.05491 2.87086-.16462 4.27879-.32913l2.96227-18.3954c-.45715-.25603-.93248-.40234-1.51764-.43884zm9.45367 3.41942c-.23772.01819-.45714.0365-.67656.0365-2.68805 0-4.3154-.98738-5.59541-1.90167l-2.74286 17.04227c3.2548-.43884 5.81483-2.1577 6.41829-4.3703l2.88906-10.8251c-.0914-.00001-.20111.0183-.29252.0183zm4.87205-17.82118c-1.27368-2.57211-3.15432-6.66147-10.73782-6.7659-5.65246-.07784-5.58311.85218-15.87845 2.83054-4.77338.91726-9.20386 1.2649-13.28073 2.13559-3.24568.69318-7.2093 2.92603-8.4851 6.45498-2.3936 6.62086.65257 11.64933 5.25218 11.63131 4.43686-.01739 5.8946-3.57547 9.30424-3.57547 3.8055 0 5.87555 3.54484 10.01424 3.5753 4.53568.03339 5.75597-3.904 9.5848-3.70811 3.6757.18806 4.29948 3.71984 9.24543 3.42385 9.03407-.54065 6.95689-12.01233 4.98121-16.00209z"/></svg>