<svg clip-rule="evenodd" fill-rule="evenodd" height="512" stroke-linejoin="round" stroke-miterlimit="2" viewBox="0 0 100 100" width="512" xmlns="http://www.w3.org/2000/svg"><g id="Layer2"><path d="m93.174 80.031c-1.951-14.878-6.447-49.171-8.194-62.5-.612-4.666-4.589-8.156-9.296-8.156-11.683 0-38.91 0-50.593 0-4.706 0-8.683 3.49-9.295 8.156-1.748 13.329-6.244 47.622-8.195 62.5-.351 2.676.469 5.374 2.249 7.402 1.78 2.029 4.348 3.192 7.047 3.192h66.982c2.699 0 5.267-1.163 7.047-3.192 1.78-2.028 2.599-4.726 2.248-7.402zm-61.547-55.027c0 10.348 8.401 18.75 18.75 18.75 10.348 0 18.75-8.402 18.75-18.75 0-1.725-1.401-3.125-3.125-3.125-1.725 0-3.125 1.4-3.125 3.125 0 6.899-5.601 12.5-12.5 12.5s-12.5-5.601-12.5-12.5c0-1.725-1.401-3.125-3.125-3.125-1.725 0-3.125 1.4-3.125 3.125z"/></g></svg>